<svg viewBox="0 0 512 512" xmlns="http://www.w3.org/2000/svg">
  <g>
    <path d="m298.971 15c0-8.284-6.716-15-15-15h-130.295c-32.218 0-58.43 26.212-58.43 58.431v21.049h203.725z" />
    <path
      d="m197.108 261.11c56.168 0 101.863-45.695 101.863-101.862v-49.769h-203.724v49.769c0 56.167 45.694 101.862 101.861 101.862z" />
    <path
      d="m508.533 325.669c-2.85-3.427-7.076-5.409-11.533-5.409h-200.006c-7.229 0-13.43 5.156-14.748 12.264l-33.496 179.476h218.247c7.23 0 13.43-5.156 14.748-12.264l30.003-161.74c.813-4.383-.366-8.9-3.215-12.327zm-126.533 105.461c-8.284 0-15-6.716-15-15s6.716-15 15-15c8.283 0 15 6.716 15 15s-6.717 15-15 15z" />
    <path
      d="m197.109 355.129c-39.745 0-66.162-17.399-81.322-31.996-7.811-7.519-13.463-15-17.308-20.918l-58.628 16.395c-22.346 6.249-39.851 29.32-39.851 52.524v125.866c0 8.284 6.716 15 15 15h202.75l31.918-168.67c-13.934 6.842-31.347 11.799-52.559 11.799z" />
    <path
      d="m128.293 271.685v20.785c10.804 13.736 32.308 32.658 68.816 32.658 36.428 0 57.987-18.988 68.813-32.717v-20.725c-20.045 12.314-43.614 19.424-68.814 19.424s-48.77-7.11-68.815-19.425z" />
    <path
      d="m64.246 199.48c.336 0 .666-.026 1.001-.034v-149.944c-.334-.008-.665-.025-1.001-.025-24.813 0-45 20.187-45 45v60.003c0 24.813 20.186 45 45 45z" />
    <path d="m373.972 154.48v-60.003c0-24.813-20.188-45-45-45h-.001v150.003h.001c24.813 0 45-20.187 45-45z" />
  </g>
</svg>
