<svg xmlns="http://www.w3.org/2000/svg" viewBox="0 0 75 75" class="network-youtube">
  <g id="_541894160">
      <path class="bg-youtube"
        d="M7.2,0h60.5c4,0,7.2,3.2,7.2,7.2v60.5c0,4-3.2,7.2-7.2,7.2H7.2c-4,0-7.2-3.2-7.2-7.2V7.2C0,3.2,3.2,0,7.2,0z" />
      <path class="youtube-invert" d="M46,37l-13.8,7.5V32.9v-3.5l6.2,3.4L46,37z M62.6,26.8c0,0-0.5-3.7-2-5.3c-1.9-2.1-4.1-2.1-5.1-2.3
			            c-7.1-0.5-17.9-0.5-17.9-0.5h0c0,0-10.7,0-17.9,0.5c-1,0.1-3.2,0.1-5.1,2.3c-1.5,1.6-2,5.3-2,5.3s-0.5,4.3-0.5,8.6V36v3.5
			            c0,4.3,0.5,8.6,0.5,8.6s0.5,3.7,2,5.3c2,2.1,4.5,2.1,5.6,2.3c4.1,0.4,17.4,0.5,17.4,0.5s10.7,0,17.9-0.5c1-0.1,3.2-0.1,5.1-2.3
			            c1.5-1.6,2-5.3,2-5.3s0.5-4.3,0.5-8.6v-3.3v-0.8C63.1,31.2,62.6,26.8,62.6,26.8z" />
    </g>
</svg>
